<svg xmlns="http://www.w3.org/2000/svg" viewBox="0 0 1600 960" role="img" aria-label="Illustrazione calda di una bottega senza glutine con scaffali e prodotti selezionati">
  <defs>
    <linearGradient id="bg" x1="0" x2="1" y1="0" y2="1"><stop offset="0" stop-color="#3b5130"/><stop offset=".44" stop-color="#735332"/><stop offset="1" stop-color="#1b2f22"/></linearGradient>
    <linearGradient id="sun" x1="0" x2="1"><stop offset="0" stop-color="#fff7e7" stop-opacity=".95"/><stop offset="1" stop-color="#d69a4b" stop-opacity=".2"/></linearGradient>
    <filter id="blur"><feGaussianBlur stdDeviation="18"/></filter>
  </defs>
  <rect width="1600" height="960" fill="url(#bg)"/>
  <circle cx="1280" cy="140" r="280" fill="#f4d399" opacity=".25" filter="url(#blur)"/>
  <rect x="120" y="120" width="1360" height="580" rx="36" fill="#241d16" opacity=".30"/>
  <g opacity=".95">
    <rect x="170" y="180" width="300" height="430" rx="18" fill="#533822"/><rect x="520" y="180" width="300" height="430" rx="18" fill="#4d3421"/><rect x="870" y="180" width="300" height="430" rx="18" fill="#553922"/><rect x="1220" y="180" width="190" height="430" rx="18" fill="#4c321f"/>
    <g stroke="#c99759" stroke-width="14" opacity=".55"><path d="M190 305h260M540 305h260M890 305h260M1240 305h150M190 455h260M540 455h260M890 455h260M1240 455h150"/></g>
  </g>
  <g opacity=".78">
    <rect x="215" y="228" width="58" height="70" rx="12" fill="#f4ead9"/><rect x="300" y="230" width="88" height="68" rx="10" fill="#d9a45d"/><rect x="590" y="224" width="72" height="78" rx="12" fill="#e9dac5"/><rect x="690" y="236" width="90" height="60" rx="10" fill="#69834c"/><rect x="930" y="225" width="70" height="78" rx="12" fill="#f6e7cf"/><rect x="1025" y="242" width="84" height="54" rx="8" fill="#bf7d3f"/><rect x="1280" y="232" width="80" height="64" rx="10" fill="#d8c48d"/>
    <rect x="225" y="378" width="110" height="70" rx="12" fill="#cfe0b7"/><rect x="365" y="380" width="70" height="66" rx="10" fill="#f3e1bd"/><rect x="580" y="370" width="100" height="82" rx="14" fill="#d39a50"/><rect x="720" y="385" width="70" height="63" rx="10" fill="#f3ead9"/><rect x="925" y="372" width="92" height="78" rx="12" fill="#e4d6be"/><rect x="1050" y="382" width="70" height="66" rx="10" fill="#7d915d"/><rect x="1260" y="378" width="92" height="70" rx="11" fill="#f0dfbd"/>
  </g>
  <rect x="0" y="620" width="1600" height="340" fill="#17140f" opacity=".55"/>
  <rect x="360" y="610" width="880" height="170" rx="28" fill="url(#sun)" opacity=".9"/>
  <ellipse cx="780" cy="780" rx="430" ry="70" fill="#20160e" opacity=".45"/>
  <g transform="translate(615 548)">
    <rect x="0" y="95" width="145" height="130" rx="28" fill="#f6ecd9"/><rect x="34" y="45" width="78" height="95" rx="18" fill="#b7793b"/><rect x="42" y="62" width="62" height="50" rx="8" fill="#fff3df"/><circle cx="72" cy="33" r="33" fill="#6c7d46"/>
    <rect x="185" y="45" width="190" height="180" rx="24" fill="#e4d1a9"/><rect x="215" y="78" width="130" height="82" rx="10" fill="#fff5e8"/><path d="M213 177c48-25 88-28 132 0" fill="none" stroke="#bf7a36" stroke-width="14" stroke-linecap="round"/>
    <rect x="420" y="70" width="125" height="155" rx="22" fill="#d6974d"/><rect x="442" y="96" width="82" height="65" rx="8" fill="#fff1df"/><path d="M456 184h55" stroke="#5a6d35" stroke-width="12" stroke-linecap="round"/>
  </g>
</svg>
