<svg xmlns="http://www.w3.org/2000/svg" viewBox="0 0 1600 520" role="img" aria-label="Scaffale di prodotti gluten free">
  <defs><linearGradient id="a" x1="0" x2="1"><stop stop-color="#fbf5e8"/><stop offset=".55" stop-color="#ead8b9"/><stop offset="1" stop-color="#31482b"/></linearGradient></defs>
  <rect width="1600" height="520" fill="url(#a)"/>
  <circle cx="1250" cy="130" r="230" fill="#f7e6c6" opacity=".45"/>
  <g transform="translate(760 75)">
    <rect x="0" y="90" width="760" height="36" rx="18" fill="#67492f" opacity=".75"/><rect x="0" y="260" width="760" height="36" rx="18" fill="#67492f" opacity=".75"/>
    <rect x="40" y="0" width="95" height="118" rx="16" fill="#f5ead6"/><rect x="65" y="22" width="46" height="58" rx="8" fill="#7b8d59"/><rect x="170" y="20" width="130" height="98" rx="18" fill="#c98e46"/><rect x="340" y="-6" width="102" height="124" rx="16" fill="#f0e3cd"/><rect x="480" y="30" width="120" height="88" rx="16" fill="#71864f"/>
    <rect x="85" y="170" width="120" height="112" rx="20" fill="#e3d3b6"/><rect x="250" y="150" width="100" height="132" rx="18" fill="#f7ebd7"/><rect x="410" y="180" width="155" height="102" rx="20" fill="#bd7641"/><rect x="600" y="160" width="100" height="122" rx="18" fill="#ece0c6"/>
  </g>
</svg>
